<?xml version="1.0" encoding="utf-8"?>
<!-- Generator: Adobe Illustrator 25.4.1, SVG Export Plug-In . SVG Version: 6.00 Build 0)  -->
<svg version="1.1" id="Layer_1" xmlns="http://www.w3.org/2000/svg" xmlns:xlink="http://www.w3.org/1999/xlink" x="0px" y="0px"
	 viewBox="0 0 230 68" style="enable-background:new 0 0 230 68;" xml:space="preserve">
<style type="text/css">
	.st0{fill:#FFFFFF;}
</style>
<g>
	<g>
		<path class="st0" d="M65.33,43.15H62.5c-0.41,0-0.68-0.25-0.8-0.74L50.26,4.33C50.1,3.84,50.28,3.6,50.82,3.6h1.91
			c0.41,0,0.68,0.25,0.8,0.74l10.27,35h0.25l10.27-35c0.12-0.49,0.39-0.74,0.8-0.74h1.91c0.49,0,0.68,0.25,0.55,0.74L66.13,42.41
			C66.01,42.9,65.74,43.15,65.33,43.15z"/>
		<path class="st0" d="M80.58,43.15h-1.91c-0.45,0-0.59-0.25-0.43-0.74L90.49,4.33c0.12-0.49,0.41-0.74,0.86-0.74h2.89
			c0.41,0,0.7,0.25,0.86,0.74l12.24,38.08c0.12,0.49-0.02,0.74-0.43,0.74h-1.97c-0.41,0-0.68-0.25-0.8-0.74l-3.32-9.84H84.7
			l-3.32,9.84C81.22,42.9,80.95,43.15,80.58,43.15z M92.64,6.98L85.56,29.8h14.46L92.88,6.98H92.64z"/>
		<path class="st0" d="M136.37,3.6h1.72c0.45,0,0.68,0.23,0.68,0.68v30.14c0,2.71-0.77,4.84-2.31,6.4
			c-1.54,1.56-3.64,2.34-6.31,2.34h-6.89c-2.67,0-4.77-0.78-6.31-2.34c-1.54-1.56-2.31-3.69-2.31-6.4V4.33
			c0-0.49,0.2-0.74,0.62-0.74h1.78c0.45,0,0.68,0.25,0.68,0.74v29.96c0,1.93,0.49,3.42,1.48,4.49c0.98,1.07,2.42,1.6,4.31,1.6h6.34
			c1.89,0,3.33-0.52,4.34-1.57c1-1.05,1.51-2.55,1.51-4.52V4.33C135.7,3.84,135.92,3.6,136.37,3.6z"/>
		<path class="st0" d="M168.8,43.15h-19.56c-0.41,0-0.62-0.25-0.62-0.74V4.33c0-0.49,0.2-0.74,0.62-0.74h1.78
			c0.45,0,0.68,0.25,0.68,0.74V39.7c0,0.37,0.2,0.55,0.62,0.55h16.49c0.49,0,0.74,0.23,0.74,0.68v1.54
			C169.54,42.92,169.29,43.15,168.8,43.15z"/>
		<path class="st0" d="M182.96,43.15h-1.78c-0.45,0-0.68-0.25-0.68-0.74V6.92c0-0.37-0.21-0.55-0.62-0.55h-8.92
			c-0.49,0-0.74-0.22-0.74-0.68V4.27c0-0.45,0.25-0.68,0.74-0.68h22.14c0.49,0,0.74,0.23,0.74,0.68v1.41c0,0.45-0.25,0.68-0.74,0.68
			h-8.92c-0.41,0-0.62,0.18-0.62,0.55v35.49C183.58,42.9,183.37,43.15,182.96,43.15z"/>
		<path class="st0" d="M207.72,43.15h-5.14c-0.87,0-1.3-0.43-1.3-1.3V4.63c0-0.87,0.43-1.3,1.3-1.3h4.64c0.87,0,1.44,0.29,1.73,0.87
			l12.51,23.47h0.25V4.63c0-0.87,0.43-1.3,1.3-1.3h5.14c0.87,0,1.3,0.43,1.3,1.3v37.22c0,0.87-0.43,1.3-1.3,1.3h-4.52
			c-0.91,0-1.57-0.41-1.98-1.24l-12.39-23.04h-0.25v22.97C209.02,42.71,208.58,43.15,207.72,43.15z"/>
	</g>
	<g>
		<path class="st0" d="M6.67,64.8H5.41c-0.81,0-1.44-0.24-1.91-0.72c-0.47-0.48-0.7-1.13-0.7-1.97v-4.28c0-0.83,0.23-1.49,0.7-1.97
			c0.47-0.48,1.1-0.72,1.91-0.72h1.27c0.97,0,1.63,0.33,1.99,0.98h0.08v-4.41c0-0.15,0.06-0.23,0.19-0.23h0.55
			c0.14,0,0.21,0.08,0.21,0.23v12.84c0,0.15-0.07,0.23-0.21,0.23H8.92c-0.13,0-0.19-0.08-0.19-0.23v-0.76H8.66
			C8.31,64.47,7.64,64.8,6.67,64.8z M8.73,62.1v-4.24c0-0.59-0.17-1.05-0.52-1.37c-0.35-0.32-0.82-0.48-1.43-0.48H5.52
			c-0.58,0-1.02,0.16-1.32,0.49c-0.3,0.33-0.45,0.79-0.45,1.38v4.2c0,0.59,0.15,1.05,0.45,1.38c0.3,0.33,0.74,0.49,1.32,0.49h1.27
			c0.61,0,1.08-0.16,1.43-0.48C8.56,63.15,8.73,62.69,8.73,62.1z"/>
		<path class="st0" d="M16.77,53.57v-1.82c0-0.14,0.06-0.21,0.19-0.21h0.57c0.13,0,0.19,0.07,0.19,0.21v1.82
			c0,0.15-0.06,0.23-0.19,0.23h-0.57C16.83,53.79,16.77,53.72,16.77,53.57z M16.77,64.58v-9.19c0-0.15,0.06-0.23,0.19-0.23h0.55
			c0.14,0,0.21,0.08,0.21,0.23v9.19c0,0.15-0.06,0.23-0.19,0.23h-0.57C16.83,64.8,16.77,64.73,16.77,64.58z"/>
		<path class="st0" d="M28.54,64.25h-1.23c-0.81,0-1.45-0.24-1.92-0.72c-0.47-0.48-0.71-1.13-0.71-1.95v-3.75
			c0-0.83,0.24-1.49,0.71-1.97c0.47-0.48,1.12-0.72,1.94-0.72h4.01c0.14,0,0.21,0.08,0.21,0.23v9.38c0,0.83-0.24,1.49-0.72,1.97
			c-0.48,0.48-1.13,0.72-1.95,0.72h-3.44c-0.14,0-0.21-0.07-0.21-0.21v-0.45c0-0.13,0.07-0.19,0.21-0.19h3.37
			c0.58,0,1.02-0.16,1.32-0.48c0.3-0.32,0.45-0.78,0.45-1.39v-1.46h-0.08C30.19,63.93,29.54,64.25,28.54,64.25z M30.58,61.55v-5.37
			c0-0.11-0.06-0.17-0.17-0.17h-2.99c-0.58,0-1.02,0.16-1.33,0.48c-0.31,0.32-0.46,0.79-0.46,1.39v3.67c0,0.59,0.15,1.05,0.46,1.37
			c0.31,0.32,0.75,0.48,1.33,0.48h1.21c0.61,0,1.08-0.16,1.43-0.48C30.41,62.6,30.58,62.14,30.58,61.55z"/>
		<path class="st0" d="M38.61,53.57v-1.82c0-0.14,0.06-0.21,0.19-0.21h0.57c0.13,0,0.19,0.07,0.19,0.21v1.82
			c0,0.15-0.06,0.23-0.19,0.23H38.8C38.68,53.79,38.61,53.72,38.61,53.57z M38.61,64.58v-9.19c0-0.15,0.06-0.23,0.19-0.23h0.55
			c0.14,0,0.21,0.08,0.21,0.23v9.19c0,0.15-0.06,0.23-0.19,0.23H38.8C38.68,64.8,38.61,64.73,38.61,64.58z"/>
		<path class="st0" d="M47.48,56.01h-1.15c-0.14,0-0.21-0.06-0.21-0.19v-0.45c0-0.14,0.07-0.21,0.21-0.21h1.15
			c0.11,0,0.17-0.06,0.17-0.17v-1.53c0-0.15,0.07-0.23,0.21-0.23h0.55c0.14,0,0.21,0.08,0.21,0.23v1.53c0,0.11,0.06,0.17,0.17,0.17
			h2.25c0.14,0,0.21,0.07,0.21,0.21v0.45c0,0.13-0.07,0.19-0.21,0.19h-2.25c-0.11,0-0.17,0.06-0.17,0.17v5.96
			c0,0.58,0.16,1.03,0.49,1.34c0.33,0.32,0.79,0.47,1.38,0.47h0.74c0.14,0,0.21,0.07,0.21,0.21v0.44c0,0.14-0.07,0.21-0.21,0.21
			h-0.81c-0.83,0-1.5-0.23-2.01-0.7c-0.5-0.47-0.76-1.11-0.76-1.93v-6C47.65,56.06,47.59,56.01,47.48,56.01z"/>
		<path class="st0" d="M61.63,64.8h-1.21c-0.82,0-1.47-0.24-1.94-0.72c-0.47-0.48-0.71-1.13-0.71-1.97v-4.28
			c0-0.83,0.24-1.49,0.71-1.97c0.47-0.48,1.12-0.72,1.94-0.72h4.01c0.13,0,0.19,0.08,0.19,0.23v9.19c0,0.15-0.06,0.23-0.19,0.23
			h-0.55c-0.14,0-0.21-0.08-0.21-0.23v-0.76h-0.08C63.27,64.47,62.61,64.8,61.63,64.8z M63.67,62.1v-5.92
			c0-0.11-0.06-0.17-0.19-0.17h-2.99c-0.58,0-1.02,0.16-1.32,0.49c-0.3,0.33-0.45,0.79-0.45,1.38v4.2c0,0.59,0.15,1.05,0.45,1.38
			c0.3,0.33,0.74,0.49,1.32,0.49h1.23c0.61,0,1.08-0.16,1.43-0.48C63.5,63.15,63.67,62.69,63.67,62.1z"/>
		<path class="st0" d="M72.44,64.8h-0.55c-0.13,0-0.19-0.08-0.19-0.23V51.73c0-0.15,0.06-0.23,0.19-0.23h0.55
			c0.14,0,0.21,0.08,0.21,0.23v12.84C72.65,64.73,72.58,64.8,72.44,64.8z"/>
		<path class="st0" d="M92.74,64.8h-3.29c-0.14,0-0.21-0.07-0.21-0.21v-0.44c0-0.13,0.07-0.19,0.21-0.19h3.2
			c1.14,0,1.7-0.44,1.7-1.32v-0.45c0-0.82-0.35-1.36-1.06-1.61l-2.36-0.91c-0.64-0.25-1.1-0.55-1.37-0.89
			c-0.27-0.34-0.41-0.81-0.41-1.42c0-1.48,0.81-2.21,2.44-2.21h3.06c0.14,0,0.21,0.07,0.21,0.21v0.44c0,0.13-0.07,0.19-0.21,0.19
			h-2.97c-0.52,0-0.91,0.11-1.16,0.34c-0.26,0.23-0.39,0.49-0.39,0.79v0.44c0,0.35,0.1,0.63,0.29,0.83c0.2,0.2,0.49,0.37,0.9,0.51
			l2.36,0.95c0.66,0.21,1.09,0.53,1.31,0.96c0.22,0.42,0.33,1.01,0.33,1.77c0,0.76-0.21,1.32-0.63,1.68
			C94.27,64.62,93.62,64.8,92.74,64.8z"/>
		<path class="st0" d="M105.9,64.8h-1.25c-0.81,0-1.44-0.24-1.91-0.72c-0.47-0.48-0.7-1.13-0.7-1.97v-6.73
			c0-0.15,0.06-0.23,0.19-0.23h0.55c0.14,0,0.21,0.08,0.21,0.23v6.7c0,0.59,0.15,1.05,0.45,1.38c0.3,0.33,0.74,0.49,1.32,0.49h1.23
			c0.61,0,1.08-0.16,1.43-0.48c0.35-0.32,0.52-0.78,0.52-1.37v-6.72c0-0.15,0.07-0.23,0.21-0.23h0.55c0.13,0,0.19,0.08,0.19,0.23
			v9.19c0,0.15-0.06,0.23-0.19,0.23h-0.55c-0.14,0-0.21-0.08-0.21-0.23v-0.76h-0.08C107.54,64.47,106.88,64.8,105.9,64.8z"/>
		<path class="st0" d="M116.66,67.62h-0.55c-0.13,0-0.19-0.07-0.19-0.21V55.38c0-0.15,0.06-0.23,0.19-0.23h0.55
			c0.14,0,0.21,0.08,0.21,0.23v0.76h0.08c0.35-0.66,1.01-0.98,1.97-0.98h1.29c0.81,0,1.44,0.24,1.91,0.72
			c0.47,0.48,0.7,1.13,0.7,1.97v4.28c0,0.83-0.23,1.49-0.7,1.97c-0.47,0.48-1.1,0.72-1.91,0.72h-1.29c-0.96,0-1.61-0.33-1.97-0.98
			h-0.08v3.59C116.86,67.55,116.79,67.62,116.66,67.62z M118.81,63.95h1.25c0.58,0,1.02-0.16,1.33-0.48
			c0.31-0.32,0.46-0.78,0.46-1.39v-4.2c0-0.61-0.15-1.07-0.46-1.39c-0.31-0.32-0.75-0.48-1.33-0.48h-1.25
			c-0.61,0-1.08,0.16-1.43,0.48c-0.35,0.32-0.52,0.78-0.52,1.37v4.24c0,0.59,0.17,1.05,0.52,1.37
			C117.73,63.79,118.21,63.95,118.81,63.95z"/>
		<path class="st0" d="M130.45,67.62h-0.55c-0.13,0-0.19-0.07-0.19-0.21V55.38c0-0.15,0.06-0.23,0.19-0.23h0.55
			c0.14,0,0.21,0.08,0.21,0.23v0.76h0.08c0.35-0.66,1.01-0.98,1.97-0.98h1.29c0.81,0,1.44,0.24,1.91,0.72
			c0.47,0.48,0.7,1.13,0.7,1.97v4.28c0,0.83-0.23,1.49-0.7,1.97c-0.47,0.48-1.1,0.72-1.91,0.72h-1.29c-0.96,0-1.61-0.33-1.97-0.98
			h-0.08v3.59C130.66,67.55,130.59,67.62,130.45,67.62z M132.61,63.95h1.25c0.58,0,1.02-0.16,1.33-0.48
			c0.31-0.32,0.46-0.78,0.46-1.39v-4.2c0-0.61-0.15-1.07-0.46-1.39c-0.31-0.32-0.75-0.48-1.33-0.48h-1.25
			c-0.61,0-1.08,0.16-1.43,0.48c-0.35,0.32-0.52,0.78-0.52,1.37v4.24c0,0.59,0.17,1.05,0.52,1.37
			C131.53,63.79,132,63.95,132.61,63.95z"/>
		<path class="st0" d="M144.29,64.8h-0.55c-0.13,0-0.19-0.08-0.19-0.23V51.73c0-0.15,0.06-0.23,0.19-0.23h0.55
			c0.14,0,0.21,0.08,0.21,0.23v12.84C144.5,64.73,144.43,64.8,144.29,64.8z"/>
		<path class="st0" d="M152.42,67.68h-0.7c-0.14,0-0.21-0.07-0.21-0.21v-0.45c0-0.14,0.07-0.21,0.21-0.21h0.51
			c0.38,0,0.7-0.05,0.96-0.16c0.26-0.11,0.5-0.31,0.7-0.6c0.2-0.29,0.33-0.52,0.4-0.68c0.18-0.39,0.32-0.75,0.44-1.08h-0.36
			c-0.14,0-0.23-0.08-0.26-0.23l-3.01-8.68c-0.05-0.15,0-0.23,0.15-0.23h0.59c0.13,0,0.21,0.08,0.25,0.23l2.78,8.11h0.08l2.78-8.11
			c0.04-0.15,0.12-0.23,0.25-0.23h0.57c0.15,0,0.21,0.08,0.17,0.23c-2.26,6.61-3.43,10.03-3.53,10.25
			c-0.09,0.23-0.27,0.54-0.52,0.93C154.18,67.31,153.43,67.68,152.42,67.68z"/>
		<path class="st0" d="M180.08,64.16v0.44c0,0.14-0.07,0.21-0.21,0.21h-2.72c-0.82,0-1.47-0.24-1.94-0.72
			c-0.47-0.48-0.71-1.13-0.71-1.97v-4.28c0-0.83,0.24-1.49,0.71-1.97c0.47-0.48,1.12-0.72,1.94-0.72h2.72
			c0.14,0,0.21,0.07,0.21,0.21v0.45c0,0.13-0.07,0.19-0.21,0.19h-2.65c-0.58,0-1.02,0.16-1.32,0.49c-0.3,0.33-0.45,0.79-0.45,1.38
			v4.2c0,0.59,0.15,1.05,0.45,1.38c0.3,0.33,0.74,0.49,1.32,0.49h2.65C180.01,63.95,180.08,64.02,180.08,64.16z"/>
		<path class="st0" d="M187.4,64.8h-0.55c-0.13,0-0.19-0.08-0.19-0.23V51.73c0-0.15,0.06-0.23,0.19-0.23h0.55
			c0.14,0,0.21,0.08,0.21,0.23v4.41h0.08c0.35-0.66,1.01-0.98,1.97-0.98h1.25c0.81,0,1.44,0.24,1.91,0.72
			c0.47,0.48,0.7,1.13,0.7,1.97v6.73c0,0.15-0.06,0.23-0.19,0.23h-0.55c-0.14,0-0.21-0.08-0.21-0.23v-6.7
			c0-0.59-0.15-1.05-0.45-1.38c-0.3-0.33-0.74-0.49-1.32-0.49h-1.23c-0.61,0-1.08,0.16-1.43,0.48c-0.35,0.32-0.52,0.78-0.52,1.37
			v6.72C187.61,64.73,187.54,64.8,187.4,64.8z"/>
		<path class="st0" d="M204.21,64.8H203c-0.82,0-1.47-0.24-1.94-0.72c-0.47-0.48-0.71-1.13-0.71-1.97v-4.28
			c0-0.83,0.24-1.49,0.71-1.97c0.47-0.48,1.12-0.72,1.94-0.72h4.01c0.13,0,0.19,0.08,0.19,0.23v9.19c0,0.15-0.06,0.23-0.19,0.23
			h-0.55c-0.14,0-0.21-0.08-0.21-0.23v-0.76h-0.08C205.85,64.47,205.19,64.8,204.21,64.8z M206.25,62.1v-5.92
			c0-0.11-0.06-0.17-0.19-0.17h-2.99c-0.58,0-1.02,0.16-1.32,0.49c-0.3,0.33-0.45,0.79-0.45,1.38v4.2c0,0.59,0.15,1.05,0.45,1.38
			c0.3,0.33,0.74,0.49,1.32,0.49h1.23c0.61,0,1.08-0.16,1.43-0.48C206.08,63.15,206.25,62.69,206.25,62.1z"/>
		<path class="st0" d="M214.28,53.57v-1.82c0-0.14,0.06-0.21,0.19-0.21h0.57c0.13,0,0.19,0.07,0.19,0.21v1.82
			c0,0.15-0.06,0.23-0.19,0.23h-0.57C214.35,53.79,214.28,53.72,214.28,53.57z M214.28,64.58v-9.19c0-0.15,0.06-0.23,0.19-0.23h0.55
			c0.14,0,0.21,0.08,0.21,0.23v9.19c0,0.15-0.06,0.23-0.19,0.23h-0.57C214.35,64.8,214.28,64.73,214.28,64.58z"/>
		<path class="st0" d="M223.05,64.8h-0.55c-0.13,0-0.19-0.08-0.19-0.23v-9.19c0-0.15,0.06-0.23,0.19-0.23h0.55
			c0.14,0,0.21,0.08,0.21,0.23v0.76h0.08c0.35-0.66,1.01-0.98,1.97-0.98h1.25c0.81,0,1.44,0.24,1.91,0.72
			c0.47,0.48,0.7,1.13,0.7,1.97v6.73c0,0.15-0.06,0.23-0.19,0.23h-0.55c-0.14,0-0.21-0.08-0.21-0.23v-6.7
			c0-0.59-0.15-1.05-0.45-1.38c-0.3-0.33-0.74-0.49-1.32-0.49h-1.23c-0.61,0-1.08,0.16-1.43,0.48c-0.35,0.32-0.52,0.78-0.52,1.37
			v6.72C223.26,64.73,223.19,64.8,223.05,64.8z"/>
	</g>
	<path class="st0" d="M38.71,6.55C34.49,2.33,28.87,0,22.9,0S11.32,2.33,7.1,6.55c-4.22,4.22-6.55,9.84-6.55,15.81
		S2.87,33.94,7.1,38.16c4.22,4.22,9.84,6.55,15.81,6.55s11.59-2.33,15.81-6.55s6.55-9.84,6.55-15.81S42.93,10.77,38.71,6.55z
		 M37.36,27.72c-0.27-1.26-0.47-2.54-0.79-3.8c-0.3-1.19-0.69-2.36-1.08-3.53c-0.29-0.88-0.64-1.73-0.97-2.59
		c-0.6-1.55-1.45-2.95-2.53-4.22c-0.14-0.17-0.28-0.35-0.39-0.55c-0.19-0.36-0.13-0.65,0.15-0.85c0.27-0.2,0.64-0.18,0.9,0.12
		c0.47,0.53,0.95,1.07,1.36,1.65c0.81,1.15,1.42,2.41,1.91,3.72c0.45,1.2,0.94,2.38,1.31,3.6c0.4,1.3,0.72,2.63,1.03,3.95
		c0.19,0.81,0.3,1.63,0.46,2.45c0.02,0.11,0.12,0.22,0.22,0.29c0.42,0.28,0.67,0.66,0.7,1.05c0.01,0.72-0.39,1.24-1.01,1.45
		c-0.49,0.16-1.11-0.08-1.46-0.57c-0.31-0.43-0.29-1.09,0.05-1.53C37.39,28.14,37.42,27.97,37.36,27.72z M32.08,35.47
		c-0.01,0.17-0.05,0.35-0.12,0.51c-0.14,0.3-0.38,0.47-0.72,0.39c-0.31-0.08-0.52-0.3-0.52-0.64c-0.01-0.81,0.02-1.62-0.02-2.42
		c-0.05-1.08-0.16-2.16-0.24-3.23c-0.01-0.15-0.02-0.31,0-0.46c0.04-0.29,0.21-0.48,0.5-0.53c0.31-0.06,0.58,0.03,0.71,0.33
		c0.09,0.2,0.16,0.43,0.17,0.65c0.11,1.35,0.21,2.7,0.31,4.05c-0.02,0-0.04,0-0.05,0C32.08,34.57,32.09,35.02,32.08,35.47z
		 M26.76,30.35c-0.23-1.38-0.46-2.77-0.82-4.11c-0.34-1.25-0.85-2.46-1.29-3.69c-0.16-0.46-0.34-0.91-0.53-1.36
		c-0.27-0.64-0.95-0.97-1.58-0.77c-0.69,0.21-1.07,0.87-0.84,1.58c0.24,0.75,0.6,1.47,0.85,2.22c0.39,1.17,0.75,2.35,1.08,3.53
		c0.2,0.72,0.3,1.46,0.47,2.19c0.03,0.12,0.13,0.26,0.23,0.33c0.65,0.43,0.81,1.24,0.37,1.87c-0.1,0.14-0.16,0.34-0.16,0.52
		c-0.01,1.7,0,3.4,0,5.1c0,0.18-0.03,0.36-0.08,0.52c-0.14,0.4-0.39,0.54-0.76,0.48c-0.27-0.05-0.51-0.35-0.49-0.7
		c0.02-0.63,0.1-1.26,0.1-1.89c-0.01-1.09-0.04-2.18-0.1-3.28c-0.01-0.16-0.15-0.35-0.28-0.46c-0.59-0.45-0.72-1.16-0.34-1.8
		c0.08-0.14,0.14-0.34,0.11-0.49c-0.19-0.97-0.36-1.94-0.63-2.88c-0.29-1.05-0.66-2.08-1.01-3.11c-0.16-0.47-0.36-0.93-0.56-1.38
		c-0.88-2.08,0.78-3.93,2.64-3.78c0.97,0.08,1.75,0.57,2.13,1.46c0.62,1.46,1.2,2.94,1.7,4.44c1.01,3.07,1.44,6.24,1.37,9.47
		c0,0.82,0.03,1.64-0.01,2.46c-0.02,0.34,0.08,0.52,0.35,0.69c0.76,0.47,1.12,1.16,1.1,2.06c-0.02,0.86-0.8,1.89-1.8,2.08
		c-0.94,0.18-1.97-0.26-2.44-1.08c-0.65-1.15-0.19-2.75,1.14-3.26c0.12-0.04,0.24-0.25,0.24-0.38
		C26.94,34.73,27.13,32.53,26.76,30.35z M18.74,28.99c-0.13-0.52-0.26-1.04-0.38-1.55c-0.1-0.4,0.12-0.81,0.48-0.91
		c0.33-0.09,0.69,0.14,0.81,0.53c0.73,2.36,1.14,4.77,1.18,7.26c-0.09,1.12-0.17,2.25-0.26,3.37c-0.04,0.44-0.41,0.79-0.76,0.76
		c-0.37-0.04-0.66-0.41-0.63-0.86c0.06-1.09,0.18-2.18,0.2-3.27C19.4,32.52,19.17,30.74,18.74,28.99z M29.31,24.66
		c-0.24-0.83-0.49-1.66-0.79-2.47c-0.33-0.89-0.72-1.75-1.09-2.62c-0.89-2.05-3.28-3.24-5.47-2.78c-1.79,0.37-3.01,1.43-3.67,3.09
		c-0.49,1.25-0.47,2.53,0.09,3.78c0.09,0.21,0.18,0.41,0.26,0.62c0.16,0.41,0.02,0.78-0.35,0.97c-0.3,0.15-0.66,0.03-0.86-0.36
		c-0.5-0.99-0.89-2.02-0.87-3.16c0.05-2.74,1.34-4.67,3.8-5.85c2.05-0.98,4.01-0.69,5.91,0.42c1.23,0.72,2.04,1.79,2.56,3.09
		c0.44,1.1,0.94,2.18,1.3,3.3c0.43,1.32,0.75,2.67,1.09,4.02c0.11,0.46-0.11,0.78-0.5,0.89c-0.31,0.08-0.66-0.14-0.78-0.56
		C29.72,26.24,29.54,25.44,29.31,24.66z M30.67,17.85c-0.78-1.72-2.07-2.98-3.75-3.86c-1.68-0.87-3.45-1.14-5.29-0.88
		c-0.8,0.11-1.57,0.44-2.34,0.71c-0.11,0.04-0.19,0.31-0.2,0.47c-0.05,0.99-0.85,1.7-1.83,1.62c-0.06-0.01-0.13,0-0.17-0.03
		c-0.4-0.26-0.61-0.01-0.84,0.27c-1.31,1.62-1.93,3.49-1.98,5.68c0.05,1.12,0.31,2.32,0.82,3.46c0.67,1.51,1.19,3.07,1.53,4.69
		c0.39,1.84,0.5,3.69,0.43,5.56c-0.01,0.27,0.05,0.46,0.28,0.64c0.55,0.43,0.7,1.27,0.39,1.92c-0.31,0.64-1.08,1-1.84,0.86
		c-0.62-0.12-1.16-0.75-1.22-1.42c-0.05-0.62,0.17-1.12,0.68-1.47c0.23-0.16,0.3-0.35,0.31-0.63c0.04-1.58,0.06-3.17-0.27-4.72
		c-0.22-1.03-0.5-2.05-0.83-3.05c-0.35-1.05-0.85-2.06-1.19-3.12c-0.4-1.24-0.51-2.53-0.39-3.84c0.21-2.28,1.11-4.25,2.66-5.93
		c0.11-0.12,0.19-0.33,0.2-0.5c0.06-1.19,1.05-1.88,2.17-1.53c0.11,0.04,0.26,0.01,0.37-0.03c0.85-0.29,1.68-0.65,2.55-0.87
		c1.34-0.35,2.71-0.3,4.06,0c1.53,0.33,2.93,0.96,4.16,1.93c1.19,0.94,2.17,2.08,2.76,3.48c0.73,1.72,1.46,3.45,2.04,5.23
		c0.81,2.49,1.34,5.04,1.51,7.67c0.05,0.82,0.18,1.63,0.23,2.45c0.04,0.52-0.28,0.82-0.76,0.73c-0.16-0.03-0.37-0.16-0.43-0.3
		c-0.11-0.24-0.17-0.52-0.18-0.79c-0.08-2.04-0.38-4.05-0.81-6.03c-0.29-1.33-0.65-2.65-1.09-3.94
		C31.9,20.77,31.32,19.29,30.67,17.85z M7.31,28.53c-0.88-1.99-1.37-4.07-1.42-6.24c-0.02-0.7,0.02-1.4,0.05-2.1
		c0.02-0.46,0.29-0.73,0.67-0.73c0.37,0,0.68,0.32,0.68,0.77c0,0.36-0.04,0.71-0.06,1.07c-0.03,1.66,0.19,3.29,0.66,4.89
		c0.19,0.63,0.44,1.25,0.7,1.86c0.06,0.14,0.28,0.27,0.44,0.31c0.85,0.19,1.34,1.21,1.08,1.92c-0.35,0.95-1.27,1.35-2.16,0.94
		c-0.73-0.34-1.05-1.35-0.68-2.07C7.35,28.96,7.38,28.69,7.31,28.53z M9.79,24.29c-0.14-0.18-0.23-0.42-0.26-0.65
		c-0.23-1.54-0.17-3.07,0.16-4.6c0.37-1.72,0.97-3.34,1.91-4.83c1.04-1.63,2.41-2.92,4.05-3.94c1.1-0.69,2.28-1.23,3.51-1.62
		c1.48-0.47,3.01-0.58,4.55-0.5c2.24,0.12,4.31,0.79,6.23,1.92c0.57,0.34,0.67,0.75,0.31,1.16c-0.23,0.25-0.52,0.26-0.87,0.09
		c-0.9-0.43-1.78-0.91-2.71-1.24c-1.36-0.49-2.8-0.67-4.25-0.58c-4.41,0.26-7.77,2.31-10.04,6.07c-1.16,1.92-1.63,4.06-1.64,6.39
		c0.05,0.56,0.12,1.21,0.16,1.86c0.02,0.31-0.15,0.51-0.44,0.62C10.2,24.54,9.95,24.5,9.79,24.29z M10.55,26.02
		c0.36-0.34,0.86-0.28,1.06,0.19c0.41,0.94,0.81,1.89,1.15,2.86c0.51,1.49,0.65,3.06,0.75,4.62c0.01,0.27,0.04,0.55,0.04,0.82
		c0,0.44-0.2,0.7-0.56,0.74c-0.4,0.05-0.66-0.12-0.76-0.57c-0.06-0.24-0.06-0.49-0.07-0.74c-0.02-1.65-0.32-3.25-0.82-4.82
		c-0.22-0.68-0.52-1.34-0.81-2.01C10.31,26.64,10.3,26.26,10.55,26.02z M38.54,17.12c-0.7,0.21-1.49-0.08-1.9-0.72
		c-0.36-0.57-0.41-1.17-0.07-1.76c0.16-0.28,0.13-0.52-0.01-0.76c-1.54-2.66-3.66-4.72-6.38-6.14c-0.72-0.38-1.49-0.66-2.26-0.95
		c-0.13-0.05-0.37,0.05-0.49,0.16c-0.46,0.4-0.97,0.58-1.57,0.51C25.14,7.37,24.63,7,24.34,6.36c-0.1-0.22-0.22-0.35-0.47-0.36
		c-1.78-0.08-3.55,0.06-5.27,0.54c-2.48,0.7-4.64,1.97-6.5,3.76c-1.18,1.14-2.22,2.38-2.98,3.84c-0.29,0.56-0.55,1.13-0.79,1.71
		C8.28,16,8.3,16.23,8.37,16.36c0.33,0.56-0.05,1.36-0.61,1.63c-0.58,0.28-1.28,0.07-1.62-0.48c-0.37-0.6-0.27-1.33,0.36-1.67
		c0.48-0.26,0.64-0.66,0.82-1.09c1.04-2.41,2.61-4.43,4.59-6.14c1.36-1.17,2.88-2.1,4.54-2.77c2.02-0.82,4.13-1.25,6.32-1.23
		c0.4,0,0.81,0.02,1.21-0.01c0.18-0.01,0.41-0.1,0.51-0.23c0.79-1.13,2.61-1.02,3.27,0.2c0.02,0.04,0.07,0.08,0.07,0.12
		c0.06,0.78,0.71,0.85,1.26,1.1c1.01,0.46,2.04,0.92,2.98,1.49c1.97,1.19,3.58,2.78,4.88,4.68c0.28,0.41,0.56,0.83,0.79,1.27
		c0.17,0.31,0.38,0.47,0.73,0.55c0.79,0.18,1.32,0.86,1.34,1.64C39.83,16.2,39.32,16.88,38.54,17.12z"/>
</g>
</svg>
