<?xml version="1.0" encoding="utf-8"?>
<!-- Generator: Adobe Illustrator 25.4.1, SVG Export Plug-In . SVG Version: 6.00 Build 0)  -->
<svg version="1.1" id="Layer_1" xmlns="http://www.w3.org/2000/svg" xmlns:xlink="http://www.w3.org/1999/xlink" x="0px" y="0px"
	 viewBox="0 0 72 72" style="enable-background:new 0 0 72 72;" xml:space="preserve">
<style type="text/css">
	.st0{fill:#FFFFFF;}
</style>
<path class="st0" d="M60.8,11.2C54.2,4.5,45.4,0.9,36,0.9S17.8,4.5,11.1,11.2S0.8,26.6,0.8,36s3.6,18.2,10.3,24.8
	c6.6,6.6,15.5,10.3,24.9,10.3s18.2-3.7,24.9-10.3S71.2,45.4,71.2,36S67.5,17.8,60.8,11.2z M58.7,44.4c-0.4-2-0.7-4-1.2-6
	c-0.5-1.9-1.1-3.7-1.7-5.5c-0.5-1.4-1-2.7-1.5-4.1c-0.9-2.4-2.3-4.6-4-6.6c-0.2-0.3-0.4-0.6-0.6-0.9c-0.3-0.6-0.2-1,0.2-1.3
	c0.4-0.3,1-0.3,1.4,0.2c0.7,0.8,1.5,1.7,2.1,2.6c1.3,1.8,2.2,3.8,3,5.8c0.7,1.9,1.5,3.7,2.1,5.7c0.6,2,1.1,4.1,1.6,6.2
	c0.3,1.3,0.5,2.6,0.7,3.9c0,0.2,0.2,0.3,0.3,0.5c0.7,0.4,1.1,1,1.1,1.7c0,1.1-0.6,1.9-1.6,2.3c-0.8,0.3-1.7-0.1-2.3-0.9
	c-0.5-0.7-0.5-1.7,0.1-2.4C58.8,45.1,58.8,44.8,58.7,44.4z M50.4,56.6c0,0.3-0.1,0.6-0.2,0.8c-0.2,0.5-0.6,0.7-1.1,0.6
	c-0.5-0.1-0.8-0.5-0.8-1c0-1.3,0-2.5,0-3.8c-0.1-1.7-0.3-3.4-0.4-5.1c0-0.2,0-0.5,0-0.7c0.1-0.5,0.3-0.8,0.8-0.8
	c0.5-0.1,0.9,0,1.1,0.5c0.1,0.3,0.3,0.7,0.3,1c0.2,2.1,0.3,4.2,0.5,6.4c0,0-0.1,0-0.1,0C50.4,55.2,50.4,55.9,50.4,56.6z M42.1,48.6
	c-0.4-2.2-0.7-4.4-1.3-6.5c-0.5-2-1.3-3.9-2-5.8c-0.3-0.7-0.5-1.4-0.8-2.1c-0.4-1-1.5-1.5-2.5-1.2c-1.1,0.3-1.7,1.4-1.3,2.5
	c0.4,1.2,0.9,2.3,1.3,3.5c0.6,1.8,1.2,3.7,1.7,5.5c0.3,1.1,0.5,2.3,0.7,3.4c0,0.2,0.2,0.4,0.4,0.5c1,0.7,1.3,1.9,0.6,2.9
	c-0.2,0.2-0.3,0.5-0.3,0.8c0,2.7,0,5.3,0,8c0,0.3,0,0.6-0.1,0.8c-0.2,0.6-0.6,0.8-1.2,0.8c-0.4-0.1-0.8-0.6-0.8-1.1c0-1,0.2-2,0.2-3
	c0-1.7-0.1-3.4-0.2-5.2c0-0.3-0.2-0.6-0.4-0.7c-0.9-0.7-1.1-1.8-0.5-2.8c0.1-0.2,0.2-0.5,0.2-0.8c-0.3-1.5-0.6-3.1-1-4.5
	c-0.5-1.7-1-3.3-1.6-4.9c-0.3-0.7-0.6-1.5-0.9-2.2c-1.4-3.3,1.2-6.2,4.2-5.9c1.5,0.1,2.8,0.9,3.3,2.3c1,2.3,1.9,4.6,2.7,7
	c1.6,4.8,2.3,9.8,2.2,14.9c0,1.3,0,2.6,0,3.9c0,0.5,0.1,0.8,0.6,1.1c1.2,0.7,1.8,1.8,1.7,3.2c0,1.4-1.3,3-2.8,3.3
	c-1.5,0.3-3.1-0.4-3.8-1.7c-1-1.8-0.3-4.3,1.8-5.1c0.2-0.1,0.4-0.4,0.4-0.6C42.3,55.5,42.6,52,42.1,48.6z M29.4,46.4
	c-0.2-0.8-0.4-1.6-0.6-2.4c-0.2-0.6,0.2-1.3,0.8-1.4c0.5-0.1,1.1,0.2,1.3,0.8c1.1,3.7,1.8,7.5,1.9,11.4c-0.1,1.8-0.3,3.5-0.4,5.3
	c-0.1,0.7-0.6,1.2-1.2,1.2c-0.6-0.1-1-0.6-1-1.4c0.1-1.7,0.3-3.4,0.3-5.1C30.5,52,30.1,49.2,29.4,46.4z M46.1,39.6
	c-0.4-1.3-0.8-2.6-1.2-3.9c-0.5-1.4-1.1-2.8-1.7-4.1c-1.4-3.2-5.2-5.1-8.6-4.4c-2.8,0.6-4.7,2.2-5.8,4.9c-0.8,2-0.7,4,0.1,5.9
	c0.1,0.3,0.3,0.6,0.4,1c0.3,0.6,0,1.2-0.6,1.5c-0.5,0.2-1,0-1.4-0.6c-0.8-1.6-1.4-3.2-1.4-5c0.1-4.3,2.1-7.3,6-9.2
	c3.2-1.5,6.3-1.1,9.3,0.7c1.9,1.1,3.2,2.8,4,4.9c0.7,1.7,1.5,3.4,2,5.2c0.7,2.1,1.2,4.2,1.7,6.3c0.2,0.7-0.2,1.2-0.8,1.4
	c-0.5,0.1-1-0.2-1.2-0.9C46.7,42.1,46.4,40.9,46.1,39.6z M48.2,28.9c-1.2-2.7-3.3-4.7-5.9-6.1c-2.6-1.4-5.4-1.8-8.3-1.4
	c-1.3,0.2-2.5,0.7-3.7,1.1c-0.2,0.1-0.3,0.5-0.3,0.7c-0.1,1.6-1.3,2.7-2.9,2.5c-0.1,0-0.2,0-0.3,0c-0.6-0.4-1,0-1.3,0.4
	c-2.1,2.5-3,5.5-3.1,8.9c0.1,1.8,0.5,3.6,1.3,5.4c1.1,2.4,1.9,4.8,2.4,7.4c0.6,2.9,0.8,5.8,0.7,8.7c0,0.4,0.1,0.7,0.4,1
	c0.9,0.7,1.1,2,0.6,3c-0.5,1-1.7,1.6-2.9,1.4c-1-0.2-1.8-1.2-1.9-2.2c-0.1-1,0.3-1.8,1.1-2.3c0.4-0.3,0.5-0.6,0.5-1
	c0.1-2.5,0.1-5-0.4-7.4c-0.3-1.6-0.8-3.2-1.3-4.8c-0.6-1.7-1.3-3.2-1.9-4.9c-0.6-1.9-0.8-4-0.6-6c0.3-3.6,1.7-6.7,4.2-9.3
	c0.2-0.2,0.3-0.5,0.3-0.8c0.1-1.9,1.7-3,3.4-2.4c0.2,0.1,0.4,0,0.6,0c1.3-0.5,2.6-1,4-1.4c2.1-0.6,4.3-0.5,6.4,0
	c2.4,0.5,4.6,1.5,6.5,3c1.9,1.5,3.4,3.3,4.3,5.5c1.1,2.7,2.3,5.4,3.2,8.2c1.3,3.9,2.1,7.9,2.4,12.1c0.1,1.3,0.3,2.6,0.4,3.9
	c0.1,0.8-0.4,1.3-1.2,1.1c-0.3,0-0.6-0.3-0.7-0.5c-0.2-0.4-0.3-0.8-0.3-1.2c-0.1-3.2-0.6-6.4-1.3-9.5c-0.5-2.1-1-4.2-1.7-6.2
	C50.1,33.5,49.2,31.2,48.2,28.9z M11.5,45.7c-1.4-3.1-2.2-6.4-2.2-9.8c0-1.1,0-2.2,0.1-3.3c0-0.7,0.5-1.1,1.1-1.1
	c0.6,0,1.1,0.5,1.1,1.2c0,0.6-0.1,1.1-0.1,1.7c0,2.6,0.3,5.2,1,7.7c0.3,1,0.7,2,1.1,2.9c0.1,0.2,0.4,0.4,0.7,0.5
	c1.3,0.3,2.1,1.9,1.7,3c-0.6,1.5-2,2.1-3.4,1.5c-1.1-0.5-1.7-2.1-1.1-3.3C11.5,46.4,11.6,46,11.5,45.7z M15.4,39
	c-0.2-0.3-0.4-0.7-0.4-1c-0.4-2.4-0.3-4.8,0.3-7.2c0.6-2.7,1.5-5.3,3-7.6c1.6-2.6,3.8-4.6,6.4-6.2c1.7-1.1,3.6-1.9,5.5-2.5
	c2.3-0.7,4.7-0.9,7.2-0.8c3.5,0.2,6.8,1.2,9.8,3c0.9,0.5,1.1,1.2,0.5,1.8c-0.4,0.4-0.8,0.4-1.4,0.1c-1.4-0.7-2.8-1.4-4.3-1.9
	c-2.1-0.8-4.4-1.1-6.7-0.9c-6.9,0.4-12.2,3.6-15.8,9.5c-1.8,3-2.6,6.4-2.6,10c0.1,0.9,0.2,1.9,0.3,2.9c0,0.5-0.2,0.8-0.7,1
	C16,39.4,15.6,39.4,15.4,39z M16.6,41.8c0.6-0.5,1.4-0.4,1.7,0.3c0.6,1.5,1.3,3,1.8,4.5c0.8,2.3,1,4.8,1.2,7.3
	c0,0.4,0.1,0.9,0.1,1.3c0,0.7-0.3,1.1-0.9,1.2c-0.6,0.1-1-0.2-1.2-0.9c-0.1-0.4-0.1-0.8-0.1-1.2c0-2.6-0.5-5.1-1.3-7.6
	c-0.3-1.1-0.8-2.1-1.3-3.2C16.2,42.7,16.2,42.1,16.6,41.8z M60.6,27.8c-1.1,0.3-2.3-0.1-3-1.1c-0.6-0.9-0.6-1.8-0.1-2.8
	c0.3-0.4,0.2-0.8,0-1.2c-2.4-4.2-5.8-7.4-10-9.7c-1.1-0.6-2.3-1-3.6-1.5c-0.2-0.1-0.6,0.1-0.8,0.3c-0.7,0.6-1.5,0.9-2.5,0.8
	c-1.1-0.1-1.9-0.7-2.4-1.7c-0.2-0.3-0.3-0.6-0.7-0.6c-2.8-0.1-5.6,0.1-8.3,0.8c-3.9,1.1-7.3,3.1-10.2,5.9c-1.9,1.8-3.5,3.7-4.7,6
	c-0.5,0.9-0.9,1.8-1.2,2.7c-0.1,0.2,0,0.6,0.1,0.8c0.5,0.9-0.1,2.1-1,2.6c-0.9,0.4-2,0.1-2.5-0.8c-0.6-0.9-0.4-2.1,0.6-2.6
	c0.8-0.4,1-1,1.3-1.7c1.6-3.8,4.1-7,7.2-9.7c2.1-1.8,4.5-3.3,7.1-4.4c3.2-1.3,6.5-2,9.9-1.9c0.6,0,1.3,0,1.9,0
	c0.3,0,0.6-0.2,0.8-0.4c1.2-1.8,4.1-1.6,5.1,0.3c0,0.1,0.1,0.1,0.1,0.2c0.1,1.2,1.1,1.3,2,1.7c1.6,0.7,3.2,1.4,4.7,2.3
	c3.1,1.9,5.6,4.4,7.7,7.4c0.4,0.6,0.9,1.3,1.2,2c0.3,0.5,0.6,0.7,1.1,0.9c1.2,0.3,2.1,1.4,2.1,2.6C62.6,26.3,61.8,27.4,60.6,27.8z"
	/>
</svg>
